<svg width="175" height="28" viewBox="0 0 175 28" fill="none" xmlns="http://www.w3.org/2000/svg">
<path d="M28.4492 1.04004C30.6727 -1.18258 34.4725 0.393355 34.4727 3.53613V24.2793C34.4726 27.4222 30.6727 28.9982 28.4492 26.7754L20.6836 19.0098C19.6935 19.6856 18.4973 20.082 17.208 20.082C15.7655 20.082 14.4397 19.5858 13.3887 18.7568C10.9102 21.0907 8.34085 23.7909 6.28125 26.0391C4.10539 28.4138 2.22595e-07 26.9279 0 23.6299V4.19238C0.000463987 0.910656 4.07713 -0.58843 6.26953 1.74414C8.24541 3.84759 10.7689 6.44068 13.4707 8.99414C14.5082 8.20389 15.8032 7.73443 17.208 7.73438C18.4971 7.73438 19.6936 8.12998 20.6836 8.80566L28.4492 1.04004ZM32.0088 3.53613C32.0086 2.58701 30.8619 2.11247 30.1914 2.78223L22.4014 10.5723C23.0207 11.5345 23.3818 12.6788 23.3818 13.9082C23.3818 15.1376 23.0207 16.2819 22.4014 17.2441L30.1914 25.0332C30.8619 25.7032 32.0088 25.2286 32.0088 24.2793V3.53613ZM4.47461 3.43164C3.7555 2.66665 2.46339 3.22286 2.46289 4.19238V23.6299C2.46289 24.6037 3.75488 25.1498 4.46484 24.375L5.35352 23.4111C7.28761 21.3275 9.57042 18.9617 11.793 16.875C11.3095 15.9945 11.0342 14.9836 11.0342 13.9082C11.0342 12.7947 11.3299 11.7506 11.8457 10.8486C9.07188 8.23056 6.48783 5.57483 4.47461 3.43164ZM17.208 10.1982C15.159 10.1984 13.4982 11.8592 13.498 13.9082C13.4981 15.9573 15.1589 17.619 17.208 17.6191C19.2572 17.6191 20.9189 15.9574 20.9189 13.9082C20.9188 11.8591 19.2571 10.1982 17.208 10.1982Z" fill="black"/>
<path d="M44.3271 19.9823V7.83314H49.7722C52.0976 7.83314 53.8672 8.35495 55.081 9.39858C56.3062 10.4309 56.9187 11.9339 56.9187 13.9077C56.9187 15.8475 56.2721 17.3449 54.9789 18.3998C53.6971 19.4548 51.8707 19.9823 49.4999 19.9823H44.3271ZM49.619 17.7192C51.105 17.7192 52.2224 17.3959 52.9711 16.7493C53.7311 16.1027 54.1111 15.1499 54.1111 13.8907C54.1111 11.361 52.6932 10.0962 49.8572 10.0962H47.0326V17.7192H49.619Z" fill="black"/>
<path d="M68.8479 19.9823L66.1934 15.4391H62.6372V19.9823H60.0168V7.83314H65.9892C69.381 7.83314 71.0769 9.09797 71.0769 11.6276C71.0769 12.4444 70.8841 13.125 70.4984 13.6695C70.124 14.214 69.5455 14.6394 68.7628 14.9457L71.8256 19.9823H68.8479ZM65.7851 13.3462C66.6812 13.3462 67.3392 13.2101 67.7589 12.9378C68.1899 12.6542 68.4055 12.2118 68.4055 11.6106C68.4055 11.0094 68.2013 10.5783 67.7929 10.3174C67.3959 10.0565 66.7379 9.92606 65.8191 9.92606H62.6372V13.3462H65.7851Z" fill="black"/>
<path d="M74.4103 19.9823V7.83314H84.5856V10.0622H77.1328V12.6145H84.2283V14.8436H77.1328V17.7533H84.96L84.6196 19.9823H74.4103Z" fill="black"/>
<path d="M96.3252 11.2533C96.087 10.6747 95.7297 10.2607 95.2532 10.0111C94.7768 9.75023 94.1132 9.61978 93.2624 9.61978C92.2982 9.61978 91.5608 9.73889 91.0504 9.97711C90.5399 10.2153 90.2846 10.5613 90.2846 11.0151C90.2846 11.4461 90.4378 11.7637 90.7441 11.9679C91.0617 12.1721 91.6346 12.3366 92.4627 12.4614L94.9639 12.8527C96.45 13.091 97.539 13.5107 98.231 14.1119C98.9229 14.7018 99.2689 15.5185 99.2689 16.5622C99.2689 17.7419 98.7641 18.6608 97.7545 19.3187C96.7563 19.9653 95.3269 20.2886 93.4666 20.2886C92.1167 20.2886 90.9936 20.1298 90.0975 19.8121C89.2127 19.4945 88.532 19.0124 88.0556 18.3658C87.5905 17.7192 87.3126 16.8968 87.2218 15.8985H89.9614C90.0748 16.6926 90.4094 17.2768 90.9653 17.6512C91.5211 18.0142 92.3549 18.1957 93.4666 18.1957C94.4648 18.1957 95.2135 18.0652 95.7126 17.8043C96.2231 17.532 96.4783 17.135 96.4783 16.6132C96.4783 16.1935 96.3082 15.8645 95.9679 15.6263C95.6389 15.3881 95.1114 15.2179 94.3854 15.1158L92.3435 14.8266C90.6874 14.5997 89.4736 14.1913 88.7022 13.6014C87.9422 13.0002 87.5621 12.1608 87.5621 11.0831C87.5621 10.3571 87.789 9.72754 88.2428 9.19439C88.6965 8.66123 89.3545 8.25286 90.2166 7.96926C91.0901 7.67432 92.128 7.52686 93.3304 7.52686C94.9866 7.52686 96.2685 7.80478 97.176 8.36062C98.0835 8.90512 98.679 9.76725 98.9626 10.947L96.3252 11.2533Z" fill="black"/>
<path d="M110.652 11.2533C110.414 10.6747 110.057 10.2607 109.58 10.0111C109.104 9.75023 108.44 9.61978 107.589 9.61978C106.625 9.61978 105.888 9.73889 105.377 9.97711C104.867 10.2153 104.612 10.5613 104.612 11.0151C104.612 11.4461 104.765 11.7637 105.071 11.9679C105.389 12.1721 105.962 12.3366 106.79 12.4614L109.291 12.8527C110.777 13.091 111.866 13.5107 112.558 14.1119C113.25 14.7018 113.596 15.5185 113.596 16.5622C113.596 17.7419 113.091 18.6608 112.082 19.3187C111.083 19.9653 109.654 20.2886 107.794 20.2886C106.444 20.2886 105.321 20.1298 104.425 19.8121C103.54 19.4945 102.859 19.0124 102.383 18.3658C101.918 17.7192 101.64 16.8968 101.549 15.8985H104.288C104.402 16.6926 104.736 17.2768 105.292 17.6512C105.848 18.0142 106.682 18.1957 107.794 18.1957C108.792 18.1957 109.541 18.0652 110.04 17.8043C110.55 17.532 110.805 17.135 110.805 16.6132C110.805 16.1935 110.635 15.8645 110.295 15.6263C109.966 15.3881 109.438 15.2179 108.712 15.1158L106.671 14.8266C105.014 14.5997 103.801 14.1913 103.029 13.6014C102.269 13.0002 101.889 12.1608 101.889 11.0831C101.889 10.3571 102.116 9.72754 102.57 9.19439C103.024 8.66123 103.681 8.25286 104.544 7.96926C105.417 7.67432 106.455 7.52686 107.657 7.52686C109.314 7.52686 110.596 7.80478 111.503 8.36062C112.411 8.90512 113.006 9.76725 113.29 10.947L110.652 11.2533Z" fill="black"/>
<path d="M129.084 15.7794C128.891 17.2201 128.239 18.3318 127.127 19.1145C126.027 19.8972 124.569 20.2886 122.754 20.2886C121.393 20.2886 120.202 20.039 119.181 19.5399C118.16 19.0408 117.372 18.3091 116.816 17.3449C116.26 16.3807 115.982 15.2349 115.982 13.9077C115.982 12.6486 116.249 11.5425 116.782 10.5897C117.326 9.62545 118.109 8.87676 119.13 8.34361C120.151 7.79911 121.353 7.52686 122.737 7.52686C126.106 7.52686 128.154 8.91647 128.88 11.6957L126.174 12.019C125.891 11.2136 125.477 10.635 124.932 10.2834C124.399 9.93173 123.667 9.7559 122.737 9.7559C121.523 9.7559 120.565 10.1246 119.862 10.8619C119.158 11.5993 118.807 12.6145 118.807 13.9077C118.807 15.2123 119.158 16.2332 119.862 16.9705C120.565 17.6965 121.54 18.0595 122.788 18.0595C123.798 18.0595 124.592 17.8724 125.17 17.498C125.749 17.1237 126.135 16.5508 126.327 15.7794H129.084Z" fill="black"/>
<path d="M145.644 13.9077C145.644 15.1896 145.36 16.3126 144.793 17.2768C144.237 18.2297 143.426 18.9727 142.36 19.5059C141.305 20.0277 140.046 20.2886 138.582 20.2886C137.176 20.2886 135.945 20.039 134.89 19.5399C133.846 19.0294 133.03 18.2978 132.44 17.3449C131.861 16.3807 131.572 15.2349 131.572 13.9077C131.572 12.6259 131.85 11.5085 132.406 10.5556C132.973 9.59142 133.784 8.8484 134.839 8.32659C135.905 7.79343 137.17 7.52686 138.633 7.52686C140.04 7.52686 141.265 7.78209 142.309 8.29256C143.364 8.79168 144.18 9.52336 144.759 10.4876C145.349 11.4405 145.644 12.5805 145.644 13.9077ZM142.819 13.9077C142.819 12.5918 142.451 11.5709 141.713 10.8449C140.976 10.1189 139.938 9.7559 138.599 9.7559C137.272 9.7559 136.24 10.1246 135.503 10.8619C134.765 11.5879 134.396 12.6032 134.396 13.9077C134.396 15.2236 134.765 16.2445 135.503 16.9705C136.24 17.6965 137.278 18.0595 138.616 18.0595C139.944 18.0595 140.976 17.6965 141.713 16.9705C142.451 16.2332 142.819 15.2123 142.819 13.9077Z" fill="black"/>
<path d="M148.737 19.9823V7.83314H154.182C156.508 7.83314 158.277 8.35495 159.491 9.39858C160.716 10.4309 161.329 11.9339 161.329 13.9077C161.329 15.8475 160.682 17.3449 159.389 18.3998C158.107 19.4548 156.281 19.9823 153.91 19.9823H148.737ZM154.029 17.7192C155.515 17.7192 156.633 17.3959 157.381 16.7493C158.141 16.1027 158.521 15.1499 158.521 13.8907C158.521 11.361 157.103 10.0962 154.267 10.0962H151.443V17.7192H154.029Z" fill="black"/>
<path d="M164.427 19.9823V7.83314H174.602V10.0622H167.149V12.6145H174.245V14.8436H167.149V17.7533H174.977L174.636 19.9823H164.427Z" fill="black"/>
</svg>
