<svg width="37" height="37" viewBox="0 0 37 37" fill="none" xmlns="http://www.w3.org/2000/svg">
<path d="M2.45801 8.66016H3.68983V8.66016L2.45801 8.66016ZM6.59766 7.05469L5.69982 7.89806L5.69982 7.89806L6.59766 7.05469ZM18.375 18.4199L19.0941 19.42L20.3768 18.4977L19.1696 17.4786L18.375 18.4199ZM6.59961 29.6748L5.69131 28.8427L5.69131 28.8427L6.59961 29.6748ZM2.45801 28.0977H1.22618V28.0977L2.45801 28.0977ZM2.45801 8.66016L3.68983 8.66016C3.68983 7.68838 4.98186 7.13374 5.69982 7.89806L6.59766 7.05469L7.49549 6.21131C5.30195 3.87612 1.22618 5.37943 1.22618 8.66016L2.45801 8.66016ZM6.59766 7.05469L5.69982 7.89806C8.77283 11.1695 13.1839 15.65 17.5804 19.3612L18.375 18.4199L19.1696 17.4786C14.8798 13.8575 10.5438 9.45643 7.49549 6.21131L6.59766 7.05469ZM18.375 18.4199L17.6559 17.4198C13.9871 20.0579 9.08515 25.1381 5.69131 28.8427L6.59961 29.6748L7.50791 30.5069C10.9204 26.7819 15.6618 21.8881 19.0941 19.42L18.375 18.4199ZM6.59961 29.6748L5.69131 28.8427C4.98166 29.6173 3.68988 29.0719 3.68983 28.0976L2.45801 28.0977L1.22618 28.0977C1.22633 31.3953 5.33188 32.8822 7.50791 30.5069L6.59961 29.6748ZM2.45801 28.0977H3.68983V8.66016H2.45801H1.22618V28.0977H2.45801Z" fill="currentColor"/>
<path d="M30.3711 6.37817L29.5 5.50718L29.5002 5.50701L30.3711 6.37817ZM18.375 18.3752L17.504 19.2463L16.633 18.3753L17.5039 17.5042L18.375 18.3752ZM30.3711 30.3713L29.5002 31.2425L29.5001 31.2424L30.3711 30.3713ZM34.292 8.00317H33.0602C33.0602 7.05377 31.9125 6.57902 31.242 7.24933L30.3711 6.37817L29.5002 5.50701C31.7236 3.2842 35.5238 4.86023 35.5238 8.00317H34.292ZM30.3711 6.37817L31.2422 7.24917L19.2461 19.2462L18.375 18.3752L17.5039 17.5042L29.5 5.50718L30.3711 6.37817ZM18.375 18.3752L19.246 17.5042L31.2421 29.5003L30.3711 30.3713L29.5001 31.2424L17.504 19.2463L18.375 18.3752ZM30.3711 30.3713L31.242 29.5002C31.9125 30.1705 33.0602 29.6957 33.0602 28.7463H34.292H35.5238C35.5238 31.8893 31.7236 33.4653 29.5002 31.2425L30.3711 30.3713ZM34.292 28.7463H33.0602V8.00317H34.292H35.5238V28.7463H34.292Z" fill="url(#paint0_linear_logo)"/>
<circle cx="18.4348" cy="18.3752" r="4.94224" fill="currentColor" stroke="currentColor" stroke-opacity="0.1" stroke-width="2.46365"/>
<defs>
<linearGradient id="paint0_linear_logo" x1="32.6629" y1="5.63064" x2="17.5067" y2="25.4714" gradientUnits="userSpaceOnUse">
<stop stop-color="currentColor"/>
<stop offset="1" stop-color="currentColor"/>
</linearGradient>
</defs>
</svg>
