<svg width="16" height="16" viewBox="0 0 16 16" fill="none" xmlns="http://www.w3.org/2000/svg">
<path d="M13.7125 11.9623C13.7953 12.2517 13.5904 12.5175 13.3028 12.4939L10.4517 12.2643L9.2249 14.8483C9.10155 15.1091 8.76897 15.1536 8.58467 14.9439L6.73677 12.7653L4.0222 13.7214C3.75773 13.8109 3.49196 13.6061 3.51558 13.3184L3.74511 10.4673L1.16118 9.24051C0.900291 9.11716 0.855798 8.78458 1.06551 8.60028L3.25079 6.72744L2.28802 4.03781C2.19856 3.77334 2.40338 3.50756 2.69099 3.53118L5.54213 3.76071L6.74399 1.1701C6.86734 0.909217 7.19992 0.864724 7.40916 1.08112L9.28199 3.2664L11.9783 2.2787C12.2428 2.18923 12.5086 2.39405 12.4849 2.68166L12.2554 5.53281L14.8393 6.7596C15.1002 6.88295 15.1447 7.21553 14.9283 7.42476L12.7497 9.27267L13.7125 11.9623ZM7.15763 11.1946C8.90284 11.6623 10.7047 10.6219 11.179 8.8518C11.64 7.13153 10.5814 5.29804 8.86113 4.83709C7.11592 4.36946 5.28911 5.4031 4.82148 7.14831C4.35385 8.89351 5.38749 10.7203 7.15763 11.1946Z" fill="#FCFCFD"/>
</svg>
