<svg width="99" height="84" viewBox="0 0 99 84" fill="none" xmlns="http://www.w3.org/2000/svg">
<path d="M52.1605 78.0272L-8.39233e-05 48.0265V45.7147L41.2845 23.2969L94 51.8989V54.0827L52.1605 78.0272Z" fill="#312E2B"/>
<path opacity="0.3" d="M61.0179 18.513C67.211 15.0441 77.2895 14.9801 83.5289 18.3701C89.7683 21.7601 89.8058 27.3203 83.6127 30.7892C77.4196 34.2582 67.341 34.3222 61.1017 30.9322C54.8623 27.5422 54.8248 21.982 61.0179 18.513Z" fill="#1E1E1E"/>
<path fill-rule="evenodd" clip-rule="evenodd" d="M88.2194 2.31983C83.7955 -0.146657 76.6495 -0.100094 72.2584 2.42383C69.892 3.78398 68.8086 5.58604 69.005 7.34472H68.9824V27.4379H91.5548V7.34472H91.5198C91.771 5.53657 90.6697 3.68598 88.2194 2.31983Z" fill="#656565"/>
<path d="M72.2584 2.42383L72.0093 1.99034L72.2584 2.42383ZM88.2194 2.31983L88.4629 1.88312L88.2194 2.31983ZM69.005 7.34472V7.84472C69.1473 7.84472 69.2828 7.78411 69.3777 7.67807C69.4725 7.57204 69.5177 7.43062 69.5019 7.28923L69.005 7.34472ZM68.9824 7.34472V6.84472C68.7063 6.84472 68.4824 7.06857 68.4824 7.34472H68.9824ZM68.9824 27.4379H68.4824C68.4824 27.714 68.7063 27.9379 68.9824 27.9379V27.4379ZM91.5548 27.4379V27.9379C91.831 27.9379 92.0548 27.714 92.0548 27.4379H91.5548ZM91.5548 7.34472H92.0548C92.0548 7.06857 91.831 6.84472 91.5548 6.84472V7.34472ZM91.5198 7.34472L91.0246 7.2759C91.0047 7.41914 91.0478 7.56398 91.1427 7.67304C91.2377 7.7821 91.3752 7.84472 91.5198 7.84472V7.34472ZM72.2584 2.42383L72.5076 2.85732C74.6104 1.64868 77.4045 1.01883 80.2299 1.00042C83.0552 0.982005 85.8574 1.5754 87.9759 2.75654L88.2194 2.31983L88.4629 1.88312C86.1575 0.597775 83.1747 -0.0187946 80.2234 0.000436485C77.272 0.0196676 74.2976 0.675053 72.0093 1.99034L72.2584 2.42383ZM69.005 7.34472L69.5019 7.28923C69.3361 5.80399 70.2363 4.16279 72.5076 2.85732L72.2584 2.42383L72.0093 1.99034C69.5477 3.40517 68.2812 5.36808 68.5081 7.4002L69.005 7.34472ZM69.005 7.34472V6.84472H68.9824V7.34472V7.84472H69.005V7.34472ZM68.9824 7.34472H68.4824V27.4379H68.9824H69.4824V7.34472H68.9824ZM68.9824 27.4379V27.9379H91.5548V27.4379V26.9379H68.9824V27.4379ZM91.5548 27.4379H92.0548V7.34472H91.5548H91.0548V27.4379H91.5548ZM91.5548 7.34472V6.84472H91.5198V7.34472V7.84472H91.5548V7.34472ZM88.2194 2.31983L87.9759 2.75654C90.3277 4.06773 91.2364 5.7511 91.0246 7.2759L91.5198 7.34472L92.0151 7.41353C92.3056 5.32205 91.0118 3.30424 88.4629 1.88312L88.2194 2.31983Z" fill="black"/>
<path fill-rule="evenodd" clip-rule="evenodd" d="M68.9824 27.4144V20.8076H91.5464V27.0681C91.5576 27.2327 91.5576 27.3976 91.5464 27.5624V27.5768H91.5454C91.4347 29.1164 90.3465 30.6423 88.2788 31.8308C83.8877 34.3547 76.7417 34.4012 72.3178 31.9348C70.1683 30.7363 69.057 29.1651 68.986 27.5768H68.9824V27.4144Z" fill="#BC672B"/>
<path d="M68.9824 20.8076V20.3076C68.7063 20.3076 68.4824 20.5315 68.4824 20.8076H68.9824ZM91.5464 20.8076H92.0464C92.0464 20.5315 91.8226 20.3076 91.5464 20.3076V20.8076ZM91.5464 27.0681H91.0464C91.0464 27.0794 91.0468 27.0907 91.0476 27.102L91.5464 27.0681ZM91.5464 27.5624L91.0476 27.5285C91.0468 27.5398 91.0464 27.5511 91.0464 27.5624H91.5464ZM91.5464 27.5768V28.0768C91.8226 28.0768 92.0464 27.853 92.0464 27.5768H91.5464ZM91.5454 27.5768V27.0768C91.2832 27.0768 91.0655 27.2794 91.0467 27.541L91.5454 27.5768ZM88.2788 31.8308L88.528 32.2643L88.2788 31.8308ZM72.3178 31.9348L72.5613 31.498H72.5613L72.3178 31.9348ZM68.986 27.5768L69.4855 27.5545C69.4736 27.2873 69.2535 27.0768 68.986 27.0768V27.5768ZM68.9824 27.5768H68.4824C68.4824 27.853 68.7063 28.0768 68.9824 28.0768V27.5768ZM68.9824 20.8076H68.4824V27.4144H68.9824H69.4824V20.8076H68.9824ZM91.5464 20.8076V20.3076H68.9824V20.8076V21.3076H91.5464V20.8076ZM91.5464 27.0681H92.0464V20.8076H91.5464H91.0464V27.0681H91.5464ZM91.5464 27.0681L91.0476 27.102C91.0572 27.244 91.0572 27.3863 91.0476 27.5285L91.5464 27.5624L92.0453 27.5963C92.058 27.4089 92.058 27.2214 92.0453 27.0342L91.5464 27.0681ZM91.5464 27.5768H92.0464V27.5624H91.5464H91.0464V27.5768H91.5464ZM91.5454 27.5768V28.0768H91.5464V27.5768V27.0768H91.5454V27.5768ZM91.5454 27.5768L91.0467 27.541C90.9522 28.8557 90.0135 30.257 88.0296 31.3973L88.2788 31.8308L88.528 32.2643C90.6796 31.0275 91.9173 29.377 92.0441 27.6127L91.5454 27.5768ZM88.2788 31.8308L88.0296 31.3973C85.9269 32.6059 83.1327 33.2358 80.3074 33.2542C77.482 33.2726 74.6798 32.6792 72.5613 31.498L72.3178 31.9348L72.0743 32.3715C74.3797 33.6568 77.3625 34.2734 80.3139 34.2542C83.2653 34.2349 86.2397 33.5795 88.528 32.2643L88.2788 31.8308ZM72.3178 31.9348L72.5613 31.498C70.4987 30.3481 69.5459 28.9068 69.4855 27.5545L68.986 27.5768L68.4865 27.5991C68.568 29.4234 69.838 31.1246 72.0743 32.3715L72.3178 31.9348ZM68.9824 27.5768V28.0768H68.986V27.5768V27.0768H68.9824V27.5768ZM68.9824 27.4144H68.4824V27.5768H68.9824H69.4824V27.4144H68.9824Z" fill="black"/>
<path d="M72.2574 17.6545C76.6485 15.1306 83.7945 15.0841 88.2184 17.5505C92.6423 20.017 92.6689 24.0626 88.2778 26.5865C83.8867 29.1104 76.7408 29.157 72.3169 26.6905C67.8929 24.224 67.8664 20.1785 72.2574 17.6545Z" fill="#BC672B" stroke="black" stroke-linecap="round" stroke-linejoin="round"/>
<g filter="url(#filter0_d_58988_4547)">
<path d="M72.2574 2.42383C76.6485 -0.100094 83.7945 -0.146657 88.2184 2.31983C92.6423 4.78632 92.6689 8.83184 88.2778 11.3558C83.8867 13.8797 76.7408 13.9263 72.3169 11.4598C67.8929 8.99328 67.8664 4.94776 72.2574 2.42383Z" fill="#464646"/>
<path d="M72.2574 2.42383C76.6485 -0.100094 83.7945 -0.146657 88.2184 2.31983C92.6423 4.78632 92.6689 8.83184 88.2778 11.3558C83.8867 13.8797 76.7408 13.9263 72.3169 11.4598C67.8929 8.99328 67.8664 4.94776 72.2574 2.42383Z" stroke="black" stroke-miterlimit="10" stroke-linecap="round" stroke-linejoin="round"/>
</g>
<path d="M72.2574 22.8987C76.6485 20.3748 83.7945 20.3282 88.2184 22.7947C92.6423 25.2612 92.6689 29.3067 88.2778 31.8306C83.8867 34.3545 76.7408 34.4011 72.3169 31.9346C67.8929 29.4681 67.8664 25.4226 72.2574 22.8987Z" stroke="black" stroke-miterlimit="10" stroke-linecap="round" stroke-linejoin="round"/>
<path d="M56.1605 75.0272L3.99992 45.0265V42.7147L45.2845 20.2969L98 48.8989V51.0827L56.1605 75.0272Z" fill="#BC672B" stroke="black" stroke-linecap="round" stroke-linejoin="round"/>
<path d="M44.7643 18.1323L98 48.9181L55.7476 72.8626L3.99991 42.7146L44.7643 18.1323Z" fill="#656565" stroke="black" stroke-linecap="round" stroke-linejoin="round"/>
<path d="M44.505 21.5337L88.7236 47.1016L53.628 66.9877L9.87487 42.0718L44.505 21.5337Z" fill="#656565" stroke="black" stroke-miterlimit="10" stroke-linecap="round" stroke-linejoin="round"/>
<path d="M47.9082 60.4943C49.5355 56.5573 53.224 48.521 54.9598 47.8712C55.7524 47.5745 56.0142 48.5243 55.9802 49.8495M55.9802 49.8495C55.921 52.1519 54.9691 55.5872 54.3571 55.5872C53.5403 55.5872 54.4964 51.8235 55.9802 49.8495ZM55.9802 49.8495C56.2481 49.4931 56.5332 49.195 56.8281 48.988C58.7568 47.6343 54.3571 58.7684 58.5157 53.8612C58.8573 53.4582 59.1542 53.0829 59.411 52.7355M59.411 52.7355C62.2801 48.8534 60.1439 48.4427 59.48 51.4246C59.3529 51.9959 59.3356 52.428 59.411 52.7355ZM59.411 52.7355C59.7642 54.1766 62.1512 52.8798 64.7838 50.3417C67.9781 47.262 67.737 49.3602 69.2437 48.5142" stroke="black" stroke-linecap="round" stroke-linejoin="round"/>
<path d="M45.2571 25.2443L47.8145 26.6937L18.8425 43.7969L16.0592 42.4292L45.2571 25.2443Z" stroke="black" stroke-miterlimit="10" stroke-linecap="round" stroke-linejoin="round"/>
<path d="M51.751 28.9547L22.553 46.1397" stroke="black" stroke-linecap="round" stroke-linejoin="round"/>
<path d="M59.79 33.2837L30.5921 50.4687" stroke="black" stroke-linecap="round" stroke-linejoin="round"/>
<path d="M57.0078 31.7377L27.8098 48.9226" stroke="black" stroke-linecap="round" stroke-linejoin="round"/>
<path d="M54.7109 42.0962L35.8492 53.2515" stroke="black" stroke-linecap="round" stroke-linejoin="round"/>
<path d="M69.5527 50.5995L50.691 61.7548" stroke="black" stroke-linecap="round" stroke-linejoin="round"/>
<path d="M54.5342 30.1915L25.3362 47.3765" stroke="black" stroke-linecap="round" stroke-linejoin="round"/>
<path d="M62.5732 34.5205L33.3753 51.7055" stroke="black" stroke-linecap="round" stroke-linejoin="round"/>
<path opacity="0.3" d="M29.2002 75.956C32.4696 79.2255 40.4947 79.8199 40.4947 79.8199C40.4947 79.8199 67.3637 73.1621 53.5725 72.6865C36.3335 72.0921 25.9307 72.6865 29.2002 75.956Z" fill="#1E1E1E"/>
<path fill-rule="evenodd" clip-rule="evenodd" d="M25.6333 18.5736C25.61 18.276 25.5596 17.9826 25.4801 17.6984C24.8767 15.5417 22.8274 14.7216 20.9027 15.8666C18.978 17.0117 17.907 19.6882 18.5103 21.8449C18.5904 22.1311 18.6959 22.3937 18.8232 22.6313C18.7856 22.6512 18.748 22.6717 18.7105 22.6931L18.6834 22.7086L18.6365 22.7361C16.7118 23.8811 15.6408 26.5577 16.2441 28.7144C16.2554 28.7545 16.2672 28.7942 16.2794 28.8334C14.42 30.0115 13.398 32.6305 13.9905 34.7482C14.5939 36.9049 16.6432 37.725 18.5678 36.5799L32.2961 28.4125C34.2208 27.2674 35.2918 24.5909 34.6885 22.4342C34.096 20.3165 32.1094 19.4875 30.2155 20.5423C30.2054 20.5018 30.1948 20.4614 30.1836 20.4213C29.583 18.2747 27.55 17.4522 25.6333 18.5736ZM22.4918 21.5467C23.4833 20.9568 24.0351 19.5779 23.7242 18.4669C23.4134 17.3559 22.3577 16.9334 21.3662 17.5233C20.3747 18.1132 19.8229 19.492 20.1338 20.603C20.4446 21.714 21.5003 22.1365 22.4918 21.5467Z" fill="#656565" stroke="black" stroke-linecap="round" stroke-linejoin="round"/>
<path fill-rule="evenodd" clip-rule="evenodd" d="M27.8628 19.3108C27.8395 19.0131 27.7891 18.7198 27.7096 18.4355C27.1062 16.2789 25.0569 15.4588 23.1322 16.6038C21.2075 17.7489 20.1365 20.4254 20.7398 22.5821C20.8199 22.8683 20.9254 23.1309 21.0527 23.3685C21.0151 23.3884 20.9775 23.4089 20.94 23.4303L20.9129 23.4458L20.866 23.4733C18.9413 24.6183 17.8703 27.2949 18.4736 29.4516C18.4849 29.4917 18.4967 29.5314 18.5089 29.5706C16.6495 30.7487 15.6275 33.3677 16.22 35.4854C16.8233 37.642 18.8727 38.4622 20.7973 37.3171L34.5256 29.1497C36.4502 28.0046 37.5213 25.328 36.9179 23.1714C36.3255 21.0537 34.3388 20.2246 32.445 21.2795C32.4349 21.239 32.4243 21.1986 32.4131 21.1585C31.8125 19.0119 29.7795 18.1894 27.8628 19.3108ZM24.7213 22.2838C25.7128 21.694 26.2645 20.3151 25.9537 19.2041C25.6429 18.0931 24.5872 17.6706 23.5957 18.2605C22.6042 18.8503 22.0524 20.2292 22.3633 21.3402C22.6741 22.4512 23.7298 22.8737 24.7213 22.2838Z" fill="#BC672B" stroke="black" stroke-linecap="round" stroke-linejoin="round"/>
<path d="M68.4195 75.2337L76.844 70.1067L67.4197 66.6715L68.4195 75.2337Z" fill="#656565" stroke="black" stroke-miterlimit="10" stroke-linecap="round" stroke-linejoin="round"/>
<path d="M48.7064 77.6387L68.4193 75.2341C69.6937 75.077 70.5009 73.0383 70.2283 70.6751C69.9557 68.3119 68.6973 66.5192 67.4228 66.6763L47.71 69.081L48.7098 77.6432L48.7064 77.6387Z" fill="#BC672B" stroke="black" stroke-linecap="round" stroke-linejoin="round"/>
<path d="M38.71 76.1865C38.9522 78.2686 40.8424 79.756 42.9231 79.5019L47.987 78.8835C49.5964 78.6854 50.6186 76.1078 50.2692 73.1166C49.9233 70.1298 48.3371 67.862 46.7278 68.0601L41.6211 68.6838C39.5571 68.9359 38.0842 70.8076 38.3245 72.873L38.71 76.1865Z" fill="#464646" stroke="black" stroke-miterlimit="10" stroke-linejoin="round"/>
<path d="M37.8934 69.1622C36.2848 69.356 35.2621 71.9365 35.609 74.9259C35.956 77.9153 37.5412 80.1816 39.1498 79.9878C40.7584 79.7941 41.7812 77.2136 41.4343 74.2241C41.0873 71.2347 39.502 68.9684 37.8934 69.1622Z" fill="#BC672B" stroke="black" stroke-linecap="round" stroke-linejoin="round"/>
<defs>
<filter id="filter0_d_58988_4547" x="64.4814" y="0" width="31.5723" height="21.7795" filterUnits="userSpaceOnUse" color-interpolation-filters="sRGB">
<feFlood flood-opacity="0" result="BackgroundImageFix"/>
<feColorMatrix in="SourceAlpha" type="matrix" values="0 0 0 0 0 0 0 0 0 0 0 0 0 0 0 0 0 0 127 0" result="hardAlpha"/>
<feOffset dy="4"/>
<feGaussianBlur stdDeviation="2"/>
<feComposite in2="hardAlpha" operator="out"/>
<feColorMatrix type="matrix" values="0 0 0 0 0 0 0 0 0 0 0 0 0 0 0 0 0 0 0.25 0"/>
<feBlend mode="normal" in2="BackgroundImageFix" result="effect1_dropShadow_58988_4547"/>
<feBlend mode="normal" in="SourceGraphic" in2="effect1_dropShadow_58988_4547" result="shape"/>
</filter>
</defs>
</svg>
