<svg width="376" height="104" viewBox="0 0 376 104" fill="none" xmlns="http://www.w3.org/2000/svg">
<rect x="16" y="16" width="71.7784" height="71.7793" rx="35.8892" fill="#92CB17"/>
<path d="M79.6757 59.3336C80.0826 57.8148 80.3537 56.2928 80.5086 54.7802C71.9183 57.766 62.8797 58.3063 54.2974 56.6385L52.0543 65.0099C60.7491 66.716 69.9449 66.0187 78.5756 62.6266C79.0006 61.5657 79.3719 60.4675 79.6757 59.3336ZM23.8474 58.308C25.9037 67.2546 32.1917 74.9457 41.0666 78.5373L43.3483 70.022C36.1902 67.5557 29.522 63.6057 23.8474 58.308ZM72.6272 71.8202C65.1546 73.4153 57.5218 73.3987 50.2091 71.8967L47.9365 80.3781C57.2506 81.682 66.3786 78.3096 72.6272 71.8202ZM35.9426 27.9463C33.5741 29.5222 31.4359 31.4519 29.6109 33.6823C34.8028 40.3622 41.6771 45.1881 49.2752 47.9026L51.4275 39.8699C45.3704 37.5514 39.9365 33.5068 35.9426 27.9463ZM77.6703 39.1241C71.4306 41.9433 64.7029 42.7316 58.2974 41.7107L56.145 49.7433C64.0817 51.1916 72.4464 50.4478 80.2821 47.2596C79.8166 44.4152 78.934 41.6734 77.6703 39.1241ZM55.8426 23.3925C51.2149 22.7446 46.6317 23.2543 42.4234 24.7247C45.3451 28.4413 49.1099 31.2194 53.2819 32.9493L55.8426 23.3925ZM60.1517 34.79C64.6298 35.3781 69.2792 34.8543 73.6678 33.0966C70.7583 29.7191 67.0443 26.9859 62.7125 25.2333L60.1517 34.79ZM24.1019 44.4426C23.8415 45.4144 23.6369 46.3886 23.4808 47.3588C29.1893 54.7805 36.7923 60.1294 45.1966 63.124L47.4276 54.7978C39.1607 51.9506 31.6011 46.964 25.6545 40.082C25.0324 41.4693 24.5089 42.9241 24.1019 44.4426ZM86.5483 61.1751C86.0194 63.1492 85.3324 65.045 84.508 66.848C77.3565 82.4872 59.7678 91.1473 42.6018 86.5477C25.233 81.8935 14.2761 65.266 16.2232 47.9249C16.4223 46.1524 16.7574 44.3732 17.2321 42.6019C18.3069 38.5913 20.0242 34.9151 22.2451 31.6603C30.5941 19.4252 46.0465 13.1779 61.175 17.2314C76.304 21.2852 86.565 34.4221 87.6777 49.1929C87.9737 53.1221 87.6229 57.1644 86.5483 61.1751Z" fill="#032F35"/>
<path d="M132.051 56.0302H121.231C120.994 54.1338 120.333 52.9315 119.249 52.4235C118.2 51.9155 116.523 51.6616 114.22 51.6616C111.985 51.6616 110.36 51.9155 109.344 52.4235C108.362 52.8977 107.583 54.0322 107.007 55.827C106.431 57.5881 106.143 59.5015 106.143 61.5673C106.143 63.6331 106.397 65.4788 106.905 67.1043C107.413 68.7299 108.175 69.8475 109.191 70.457C110.241 71.0666 111.918 71.3714 114.22 71.3714C116.354 71.3714 117.946 71.1344 118.995 70.6602C120.079 70.1522 120.79 69.0347 121.129 67.3075H132.051C132.051 70.4232 131.458 72.7768 130.273 74.3685C129.087 75.9602 127.259 77.2641 124.787 78.28C122.314 79.2621 118.877 79.7532 114.474 79.7532C109.869 79.7532 106.126 79.1436 103.248 77.9244C100.403 76.6714 98.4559 74.5717 97.4061 71.6254C96.3562 68.6791 95.8313 65.3264 95.8313 61.5673C95.8313 57.8082 96.407 54.4216 97.5585 51.4076C98.7438 48.3596 100.708 46.243 103.451 45.0577C106.194 43.8724 109.869 43.2798 114.474 43.2798C118.877 43.2798 122.297 43.8047 124.736 44.8545C127.174 45.8705 129.003 47.259 130.222 49.02C131.441 50.781 132.051 53.1178 132.051 56.0302Z" fill="#032F35"/>
<path d="M146.984 60.3989H137.129C137.4 58.2992 138.128 56.5044 139.313 55.0143C140.499 53.4903 142.04 52.3219 143.936 51.5092C145.866 50.6625 148.728 50.2392 152.521 50.2392C157.093 50.2392 160.31 50.7302 162.173 51.7124C164.035 52.6945 165.441 54.0322 166.389 55.7254C167.371 57.3849 167.862 59.2813 167.862 61.4149V74.1145L169.03 78.788H159.176L158.058 74.3177C157.482 75.4353 156.568 76.4343 155.315 77.3149C153.893 78.297 152.487 78.9404 151.099 79.2452C149.744 79.5839 148.085 79.7532 146.12 79.7532C144.495 79.7532 142.818 79.4484 141.091 78.8388C139.364 78.2631 138.094 77.1117 137.281 75.3845C136.502 73.6235 136.113 71.8625 136.113 70.1015C136.113 67.3583 136.689 65.4449 137.84 64.3612C138.992 63.2775 140.668 62.5155 142.869 62.0753C144.833 61.6689 147.204 61.4657 149.981 61.4657C152.419 61.4996 155.095 61.6181 158.007 61.8213V61.2625C158.007 60.1788 157.685 59.3829 157.042 58.875C156.432 58.367 154.993 58.113 152.724 58.113C150.387 58.113 148.88 58.3331 148.203 58.7734C147.526 59.2136 147.119 59.7555 146.984 60.3989ZM158.007 67.0027C156.517 66.9011 155.213 66.8503 154.096 66.8503C153.418 66.8503 152.809 66.8673 152.267 66.9011C150.641 67.0366 149.355 67.2059 148.406 67.4091C147.492 67.6123 146.848 67.9002 146.476 68.2727C146.103 68.6452 145.917 69.2379 145.917 70.0507C145.917 71.4053 146.154 72.3027 146.628 72.743C147.102 73.1832 147.763 73.4034 148.609 73.4034C150.066 73.4034 151.285 73.3018 152.267 73.0986C153.283 72.8615 154.485 72.3027 155.874 71.4222C157.296 70.5078 158.007 69.3903 158.007 68.0695V67.0027Z" fill="#032F35"/>
<path d="M184.094 63.2436V78.788H174.239V55.8778L173.071 51.2044H182.926L183.993 55.4207C184.805 53.9644 185.771 52.7622 186.888 51.814C188.107 50.7641 190.105 50.2392 192.882 50.2392C194.982 50.2392 196.929 50.4763 198.724 50.9504C200.519 51.3906 201.738 52.4913 202.382 54.2523C202.517 54.7264 202.653 55.2175 202.788 55.7254C203.635 54.1338 204.651 52.8299 205.836 51.814C207.055 50.7641 209.053 50.2392 211.83 50.2392C213.93 50.2392 215.877 50.4763 217.672 50.9504C219.467 51.3906 220.669 52.4913 221.279 54.2523C221.922 56.0133 222.244 58.0791 222.244 60.4497V78.788H212.389V62.4309C212.389 61.381 212.321 60.4836 212.186 59.7385C212.084 58.9596 211.644 58.5024 210.865 58.367C210.086 58.1976 209.307 58.113 208.528 58.113C207.241 58.113 206.293 58.1976 205.684 58.367C205.108 58.5024 204.617 58.8242 204.211 59.3321C203.804 59.8401 203.516 60.4158 203.347 61.0593C203.313 61.0932 203.296 61.127 203.296 61.1609V78.788H193.441V62.4309C193.441 61.381 193.373 60.4836 193.238 59.7385C193.136 58.9596 192.696 58.5024 191.917 58.367C191.138 58.1976 190.359 58.113 189.581 58.113C188.294 58.113 187.345 58.1976 186.736 58.367C186.16 58.5024 185.669 58.8242 185.263 59.3321C184.856 59.8401 184.551 60.4158 184.348 61.0593C184.179 61.7027 184.094 62.4309 184.094 63.2436Z" fill="#032F35"/>
<path d="M246.823 79.7532C244.723 79.7532 242.556 79.1775 240.321 78.026C239.102 77.4503 238.103 76.7053 237.324 75.7909V87.7794H227.469V55.8778L226.3 51.2044H236.155L237.222 55.3699C237.561 54.8957 237.933 54.4385 238.34 53.9983C240.778 51.4922 243.521 50.2392 246.569 50.2392C246.671 50.2392 246.755 50.2392 246.823 50.2392C252.242 50.3408 255.95 51.6616 257.948 54.2015C259.946 56.7076 260.945 60.3143 260.945 65.0216C260.945 68.0356 260.471 70.8465 259.523 73.4542C258.574 76.028 257.152 77.7212 255.256 78.534C253.359 79.3468 250.548 79.7532 246.823 79.7532ZM244.994 71.8794C247.466 71.8794 249.261 71.3037 250.379 70.1522C251.496 68.9669 252.055 67.2567 252.055 65.0216C252.055 62.7526 251.496 61.0424 250.379 59.8909C249.261 58.7056 247.466 58.113 244.994 58.113C242.895 58.113 241.083 58.7056 239.559 59.8909C238.069 61.0424 237.324 62.7526 237.324 65.0216C237.324 67.2567 238.069 68.9669 239.559 70.1522C241.083 71.3037 242.895 71.8794 244.994 71.8794Z" fill="#032F35"/>
<path d="M282.317 79.7532C278.084 79.7532 274.663 79.2452 272.056 78.2292C269.448 77.2133 267.619 75.52 266.569 73.1494C265.52 70.7449 264.995 68.0356 264.995 65.0216C264.995 61.8721 265.469 59.1459 266.417 56.843C267.399 54.5063 269.245 52.8299 271.954 51.814C274.697 50.7641 278.151 50.2392 282.317 50.2392C286.889 50.2392 290.377 50.7302 292.781 51.7124C295.186 52.6945 296.947 54.4047 298.065 56.843C299.182 59.2475 299.741 61.9737 299.741 65.0216C299.741 68.1372 299.114 70.9142 297.861 73.3526C296.642 75.757 294.881 77.4334 292.578 78.3816C290.275 79.296 286.855 79.7532 282.317 79.7532ZM282.317 71.8794C285.331 71.8794 287.295 71.3037 288.21 70.1522C289.158 68.9669 289.632 67.2567 289.632 65.0216C289.632 62.7526 289.158 61.0424 288.21 59.8909C287.295 58.7056 285.331 58.113 282.317 58.113C279.642 58.113 277.762 58.7056 276.678 59.8909C275.628 61.0424 275.104 62.7526 275.104 65.0216C275.104 67.2567 275.628 68.9669 276.678 70.1522C277.762 71.3037 279.642 71.8794 282.317 71.8794Z" fill="#032F35"/>
<path d="M323.142 79.7532C318.503 79.7532 314.794 79.0759 312.017 77.7212C309.274 76.3327 307.209 74.2331 305.82 71.4222C304.465 68.6114 303.788 65.3264 303.788 61.5673C303.788 57.8082 304.432 54.5401 305.718 51.7632C307.005 48.9523 309.071 46.8357 311.916 45.4133C314.761 43.991 318.503 43.2798 323.142 43.2798C327.816 43.2798 331.541 44.0079 334.318 45.4641C337.129 46.9204 339.195 49.037 340.515 51.814C341.87 54.5571 342.547 57.8082 342.547 61.5673C342.547 65.3264 341.87 68.5944 340.515 71.3714C339.703 73.0308 338.636 74.4532 337.315 75.6385L343.97 84.3251H332.743L328.883 79.296C327.155 79.6008 325.242 79.7532 323.142 79.7532ZM323.142 71.3714C325.682 71.3714 327.545 71.0158 328.73 70.3046C329.915 69.5935 330.745 68.4759 331.219 66.9519C331.693 65.3941 331.931 63.5992 331.931 61.5673C331.931 59.5015 331.693 57.7235 331.219 56.2334C330.779 54.7433 329.949 53.6088 328.73 52.8299C327.545 52.051 325.682 51.6616 323.142 51.6616C320.636 51.6616 318.757 52.0341 317.504 52.7791C316.251 53.5242 315.421 54.6587 315.015 56.1826C314.608 57.7066 314.405 59.5015 314.405 61.5673C314.405 63.5992 314.642 65.411 315.116 67.0027C315.624 68.5606 316.454 69.6781 317.605 70.3554C318.791 71.0328 320.636 71.3714 323.142 71.3714Z" fill="#032F35"/>
<path d="M348.038 78.788V44.245H358.401V78.788H348.038Z" fill="#032F35"/>
</svg>
