<svg width="83" height="40" viewBox="0 0 83 40" fill="none" xmlns="http://www.w3.org/2000/svg">
<path d="M35.4836 24.1479C35.7103 23.3015 35.8614 22.4534 35.9477 21.6104C31.1607 23.2743 26.124 23.5754 21.3414 22.646L20.0915 27.311C24.9367 28.2617 30.0611 27.8731 34.8705 25.9829C35.1074 25.3917 35.3143 24.7797 35.4836 24.1479ZM4.37299 23.5763C5.51891 28.5619 9.02291 32.8478 13.9685 34.8492L15.24 30.104C11.2511 28.7297 7.53523 26.5285 4.37299 23.5763ZM31.5558 31.106C27.3916 31.995 23.1382 31.9857 19.0632 31.1487L17.7967 35.875C22.9871 36.6016 28.0737 34.7223 31.5558 31.106ZM11.1131 6.65711C9.79324 7.5353 8.60174 8.61065 7.58472 9.85355C10.4779 13.576 14.3087 16.2652 18.5428 17.7779L19.7422 13.3016C16.3668 12.0096 13.3387 9.75577 11.1131 6.65711ZM34.3661 12.886C30.889 14.457 27.1399 14.8963 23.5704 14.3274L22.371 18.8036C26.7937 19.6107 31.455 19.1962 35.8215 17.4196C35.5621 15.8345 35.0702 14.3066 34.3661 12.886ZM22.2025 4.11951C19.6237 3.75846 17.0697 4.04251 14.7246 4.86187C16.3527 6.93297 18.4506 8.48107 20.7755 9.44507L22.2025 4.11951ZM24.6038 10.4708C27.0992 10.7985 29.6901 10.5067 32.1357 9.52716C30.5144 7.64505 28.4447 6.12195 26.0307 5.14528L24.6038 10.4708ZM4.51481 15.8498C4.36972 16.3913 4.25571 16.9342 4.16873 17.4748C7.34981 21.6106 11.5866 24.5913 16.27 26.2601L17.5132 21.6203C12.9064 20.0336 8.6938 17.2548 5.38001 13.4198C5.03335 14.1929 4.7416 15.0036 4.51481 15.8498ZM39.3134 25.174C39.0186 26.2741 38.6358 27.3306 38.1764 28.3353C34.1912 37.0503 24.3898 41.8762 14.824 39.313C5.14513 36.7195 -0.960639 27.4537 0.124391 17.7903C0.235309 16.8026 0.422085 15.8111 0.686576 14.824C1.28551 12.5891 2.24252 10.5405 3.48012 8.72676C8.13265 1.90873 16.7435 -1.57263 25.174 0.686196C33.6047 2.94519 39.3227 10.2658 39.9428 18.4969C40.1077 20.6865 39.9122 22.9391 39.3134 25.174Z" fill="#DFECC6"/>
<path d="M79.8251 21.499C81.2787 21.499 82.4681 22.6619 82.4681 24.1156V37.3569C82.4681 38.8106 81.2787 39.9735 79.8251 39.9735H77.3407C75.887 39.9735 74.7241 38.8106 74.7241 37.3569V24.1156C74.7241 22.6619 75.887 21.499 77.3407 21.499H79.8251ZM79.8515 37.3833V24.0891H77.3407V37.3833H79.8515Z" fill="#DFECC6"/>
<path d="M72.0667 28.8729C72.0667 29.613 71.776 30.2737 71.3002 30.7495C70.8245 31.2252 70.1637 31.5159 69.4501 31.5159C70.9038 31.5159 72.0667 32.6788 72.0667 34.1325V39.9735H69.4501V34.4496H69.4237C69.2916 33.7625 68.7101 33.2339 67.9701 33.2339H66.9393V39.9735H64.3228V21.499H69.4501C70.9038 21.499 72.0667 22.6619 72.0667 24.1156V28.8729ZM69.4501 28.1858V24.8292C69.4501 24.0099 68.7894 23.3491 67.9701 23.3491H66.9393V29.6658H67.9701C68.7894 29.6658 69.4501 29.0051 69.4501 28.1858Z" fill="#DFECC6"/>
<path d="M61.6653 24.1156V28.5029H59.0488V24.0891H56.5379V37.3833H59.0488V31.8067H57.7801V30.0623H61.6653V37.3569C61.6653 38.8106 60.476 39.9735 59.0223 39.9735H56.5379C55.0843 39.9735 53.9214 38.8106 53.9214 37.3569V24.0627C53.9214 23.9834 53.9214 23.9041 53.9214 23.7984C53.9478 23.7191 53.9478 23.6398 53.9742 23.5605C54.1857 22.5562 54.9786 21.7633 55.9829 21.5519C56.0622 21.5255 56.1415 21.5255 56.2208 21.499C56.3265 21.499 56.4058 21.499 56.4851 21.499H59.0223C60.476 21.499 61.6653 22.6619 61.6653 24.1156Z" fill="#DFECC6"/>
<path d="M49.3896 21.499L52.1647 39.9999H49.5481L48.8874 35.0047H45.9008L45.2401 39.9999H42.6235L45.3987 21.499H49.3896ZM46.1916 32.6788H48.5967L47.3809 23.5341L46.1916 32.6788Z" fill="#DFECC6"/>
<path d="M81.5393 2.64298H76.412V7.45321H80.3764V10.0698H76.412V15.8843H81.5393V18.5273H73.7954V0H81.5393V2.64298Z" fill="#DFECC6"/>
<path d="M68.4945 0.0273438C69.9746 0.0273438 71.1375 1.19026 71.1375 2.6439V15.8852C71.1375 17.3389 69.9746 18.5018 68.4945 18.5018H63.3936V0.0273438H68.4945ZM68.5209 14.458V4.07111C68.5209 3.27821 67.8602 2.61747 67.0409 2.61747H66.0101V15.9117H67.0409C67.8602 15.9117 68.5209 15.2509 68.5209 14.458Z" fill="#DFECC6"/>
<path d="M61.5618 2.64298H56.4344V7.45321H60.3989V10.0698H56.4344V15.8843H61.5618V18.5273H53.8179V0H61.5618V2.64298Z" fill="#DFECC6"/>
<path d="M51.1604 7.40127C51.1604 8.1413 50.8697 8.80205 50.394 9.27778C49.9182 9.75352 49.2575 10.0442 48.5439 10.0442C49.9975 10.0442 51.1604 11.2072 51.1604 12.6608V18.5018H48.5439V12.978H48.5175C48.3853 12.2908 47.8039 11.7622 47.0638 11.7622H46.0331V18.5018H43.4165V0.0273438H48.5439C49.9975 0.0273438 51.1604 1.19026 51.1604 2.6439V7.40127ZM48.5439 6.71409V3.3575C48.5439 2.53818 47.8831 1.87743 47.0638 1.87743H46.0331V8.19416H47.0638C47.8831 8.19416 48.5439 7.53341 48.5439 6.71409Z" fill="#DFECC6"/>
</svg>
