<svg preserveAspectRatio="none" width="100%" height="100%" overflow="visible" style="display: block;" viewBox="0 0 17 17" fill="none" xmlns="http://www.w3.org/2000/svg">
<g id="Group 427319341">
<path id="sun" d="M13.8103 12.0695C13.8931 12.3589 13.6883 12.6247 13.4007 12.601L10.5495 12.3715L9.32275 14.9554C9.19941 15.2163 8.86683 15.2608 8.68252 15.0511L6.83462 12.8725L4.12005 13.8286C3.85559 13.9181 3.58981 13.7132 3.61343 13.4256L3.84296 10.5745L1.25903 9.34769C0.998144 9.22434 0.953651 8.89176 1.16336 8.70746L3.34865 6.83462L2.38587 4.14498C2.29641 3.88052 2.50123 3.61474 2.78884 3.63836L5.63999 3.86789L6.84185 1.27728C6.96519 1.0164 7.29778 0.971902 7.50701 1.1883L9.37985 3.37358L12.0762 2.38587C12.3406 2.29641 12.6064 2.50123 12.5828 2.78884L12.3533 5.63999L14.9372 6.86678C15.1981 6.99013 15.2426 7.32271 15.0262 7.53194L12.8476 9.37985L13.8103 12.0695ZM7.25548 11.3018C9.00069 11.7694 10.8026 10.7291 11.2769 8.95898C11.7378 7.23871 10.6793 5.40521 8.95898 4.94427C7.21377 4.47664 5.38696 5.51027 4.91933 7.25548C4.45171 9.00069 5.48534 10.8275 7.25548 11.3018Z" fill="var(--fill-0, #FCFCFD)"/>
</g>
</svg>
