<svg preserveAspectRatio="none" width="100%" height="100%" overflow="visible" style="display: block;" viewBox="0 0 16 16" fill="none" xmlns="http://www.w3.org/2000/svg">
<g id="Frame 2147236804">
<path id="text" d="M14.125 2.76367V4.51367C14.125 4.97852 13.7148 5.38867 13.25 5.38867C12.7578 5.38867 12.375 4.97852 12.375 4.51367V3.63867H8.875V12.3887H10.1875C10.6523 12.3887 11.0625 12.7715 11.0625 13.2637C11.0625 13.7285 10.6523 14.1113 10.1875 14.1113H5.8125C5.32031 14.1113 4.9375 13.7012 4.9375 13.2637C4.9375 12.7988 5.32031 12.3887 5.8125 12.3887H7.125V3.63867H3.625V4.51367C3.625 4.97852 3.21484 5.38867 2.75 5.38867C2.25781 5.38867 1.875 4.97852 1.875 4.51367V2.76367C1.875 2.27148 2.25781 1.88867 2.75 1.88867H13.25C13.7148 1.88867 14.125 2.27148 14.125 2.76367Z" fill="var(--fill-0, #FCFCFD)"/>
</g>
</svg>
