<svg width="180" height="37" viewBox="0 0 180 37" fill="none" xmlns="http://www.w3.org/2000/svg">
<path d="M2.45801 8.66016H3.68983V8.66016L2.45801 8.66016ZM6.59766 7.05469L5.69982 7.89806L5.69982 7.89806L6.59766 7.05469ZM18.375 18.4199L19.0941 19.42L20.3768 18.4977L19.1696 17.4786L18.375 18.4199ZM6.59961 29.6748L5.69131 28.8427L5.69131 28.8427L6.59961 29.6748ZM2.45801 28.0977H1.22618V28.0977L2.45801 28.0977ZM2.45801 8.66016L3.68983 8.66016C3.68983 7.68838 4.98186 7.13374 5.69982 7.89806L6.59766 7.05469L7.49549 6.21131C5.30195 3.87612 1.22618 5.37943 1.22618 8.66016L2.45801 8.66016ZM6.59766 7.05469L5.69982 7.89806C8.77283 11.1695 13.1839 15.65 17.5804 19.3612L18.375 18.4199L19.1696 17.4786C14.8798 13.8575 10.5438 9.45643 7.49549 6.21131L6.59766 7.05469ZM18.375 18.4199L17.6559 17.4198C13.9871 20.0579 9.08515 25.1381 5.69131 28.8427L6.59961 29.6748L7.50791 30.5069C10.9204 26.7819 15.6618 21.8881 19.0941 19.42L18.375 18.4199ZM6.59961 29.6748L5.69131 28.8427C4.98166 29.6173 3.68988 29.0719 3.68983 28.0976L2.45801 28.0977L1.22618 28.0977C1.22633 31.3953 5.33188 32.8822 7.50791 30.5069L6.59961 29.6748ZM2.45801 28.0977H3.68983V8.66016H2.45801H1.22618V28.0977H2.45801Z" fill="currentColor"/>
<path d="M30.3711 6.37817L29.5 5.50718L29.5002 5.50701L30.3711 6.37817ZM18.375 18.3752L17.504 19.2463L16.633 18.3753L17.5039 17.5042L18.375 18.3752ZM30.3711 30.3713L29.5002 31.2425L29.5001 31.2424L30.3711 30.3713ZM34.292 8.00317H33.0602C33.0602 7.05377 31.9125 6.57902 31.242 7.24933L30.3711 6.37817L29.5002 5.50701C31.7236 3.2842 35.5238 4.86023 35.5238 8.00317H34.292ZM30.3711 6.37817L31.2422 7.24917L19.2461 19.2462L18.375 18.3752L17.5039 17.5042L29.5 5.50718L30.3711 6.37817ZM18.375 18.3752L19.246 17.5042L31.2421 29.5003L30.3711 30.3713L29.5001 31.2424L17.504 19.2463L18.375 18.3752ZM30.3711 30.3713L31.242 29.5002C31.9125 30.1705 33.0602 29.6957 33.0602 28.7463H34.292H35.5238C35.5238 31.8893 31.7236 33.4653 29.5002 31.2425L30.3711 30.3713ZM34.292 28.7463H33.0602V8.00317H34.292H35.5238V28.7463H34.292Z" fill="url(#paint0_linear_58970_5129)"/>
<circle cx="18.4348" cy="18.3752" r="4.94224" fill="currentColor" stroke="currentColor" stroke-width="2.46365"/>
<path d="M48.221 25.375V13.2258H53.666C55.9915 13.2258 57.7611 13.7476 58.9749 14.7913C60.2 15.8236 60.8126 17.3266 60.8126 19.3004C60.8126 21.2402 60.166 22.7376 58.8728 23.7925C57.591 24.8475 55.7646 25.375 53.3938 25.375H48.221ZM53.5129 23.1119C54.9989 23.1119 56.1163 22.7886 56.865 22.142C57.625 21.4954 58.005 20.5426 58.005 19.2834C58.005 16.7537 56.587 15.4889 53.7511 15.4889H50.9265V23.1119H53.5129ZM72.7417 25.375L70.0873 20.8318H66.531V25.375H63.9106V13.2258H69.8831C73.2749 13.2258 74.9708 14.4907 74.9708 17.0203C74.9708 17.8371 74.7779 18.5177 74.3923 19.0622C74.0179 19.6067 73.4394 20.0321 72.6567 20.3384L75.7195 25.375H72.7417ZM69.6789 18.7389C70.5751 18.7389 71.233 18.6028 71.6527 18.3305C72.0838 18.0469 72.2993 17.6045 72.2993 17.0033C72.2993 16.4021 72.0951 15.971 71.6868 15.7101C71.2897 15.4492 70.6318 15.3188 69.713 15.3188H66.531V18.7389H69.6789ZM78.3041 25.375V13.2258H88.4795V15.4549H81.0266V18.0072H88.1221V20.2363H81.0266V23.146H88.8538L88.5135 25.375H78.3041ZM100.219 16.646C99.9808 16.0674 99.6235 15.6534 99.1471 15.4038C98.6706 15.1429 98.007 15.0125 97.1562 15.0125C96.192 15.0125 95.4547 15.1316 94.9442 15.3698C94.4337 15.608 94.1785 15.954 94.1785 16.4078C94.1785 16.8388 94.3317 17.1564 94.6379 17.3606C94.9556 17.5648 95.5284 17.7293 96.3565 17.8541L98.8578 18.2454C100.344 18.4837 101.433 18.9034 102.125 19.5046C102.817 20.0945 103.163 20.9112 103.163 21.9549C103.163 23.1346 102.658 24.0535 101.648 24.7114C100.65 25.358 99.2208 25.6813 97.3604 25.6813C96.0105 25.6813 94.8875 25.5225 93.9913 25.2048C93.1065 24.8872 92.4259 24.4051 91.9495 23.7585C91.4844 23.1119 91.2064 22.2895 91.1157 21.2912H93.8552C93.9686 22.0853 94.3033 22.6695 94.8591 23.0439C95.415 23.4069 96.2487 23.5884 97.3604 23.5884C98.3587 23.5884 99.1074 23.4579 99.6065 23.197C100.117 22.9247 100.372 22.5277 100.372 22.0059C100.372 21.5862 100.202 21.2572 99.8617 21.019C99.5328 20.7808 99.0053 20.6106 98.2793 20.5085L96.2374 20.2193C94.5812 19.9924 93.3674 19.584 92.5961 18.9941C91.836 18.3929 91.456 17.5535 91.456 16.4758C91.456 15.7498 91.6829 15.1202 92.1366 14.5871C92.5904 14.0539 93.2483 13.6456 94.1104 13.362C94.9839 13.067 96.0219 12.9196 97.2243 12.9196C98.8805 12.9196 100.162 13.1975 101.07 13.7533C101.977 14.2978 102.573 15.1599 102.856 16.3397L100.219 16.646ZM114.546 16.646C114.308 16.0674 113.951 15.6534 113.474 15.4038C112.998 15.1429 112.334 15.0125 111.483 15.0125C110.519 15.0125 109.782 15.1316 109.271 15.3698C108.761 15.608 108.506 15.954 108.506 16.4078C108.506 16.8388 108.659 17.1564 108.965 17.3606C109.283 17.5648 109.855 17.7293 110.684 17.8541L113.185 18.2454C114.671 18.4837 115.76 18.9034 116.452 19.5046C117.144 20.0945 117.49 20.9112 117.49 21.9549C117.49 23.1346 116.985 24.0535 115.975 24.7114C114.977 25.358 113.548 25.6813 111.687 25.6813C110.338 25.6813 109.215 25.5225 108.318 25.2048C107.434 24.8872 106.753 24.4051 106.276 23.7585C105.811 23.1119 105.533 22.2895 105.443 21.2912H108.182C108.296 22.0853 108.63 22.6695 109.186 23.0439C109.742 23.4069 110.576 23.5884 111.687 23.5884C112.686 23.5884 113.434 23.4579 113.934 23.197C114.444 22.9247 114.699 22.5277 114.699 22.0059C114.699 21.5862 114.529 21.2572 114.189 21.019C113.86 20.7808 113.332 20.6106 112.606 20.5085L110.564 20.2193C108.908 19.9924 107.694 19.584 106.923 18.9941C106.163 18.3929 105.783 17.5535 105.783 16.4758C105.783 15.7498 106.01 15.1202 106.464 14.5871C106.917 14.0539 107.575 13.6456 108.437 13.362C109.311 13.067 110.349 12.9196 111.551 12.9196C113.208 12.9196 114.489 13.1975 115.397 13.7533C116.304 14.2978 116.9 15.1599 117.184 16.3397L114.546 16.646ZM132.978 21.1721C132.785 22.6128 132.133 23.7245 131.021 24.5072C129.921 25.2899 128.463 25.6813 126.648 25.6813C125.287 25.6813 124.096 25.4317 123.075 24.9326C122.054 24.4335 121.265 23.7018 120.71 22.7376C120.154 21.7734 119.876 20.6276 119.876 19.3004C119.876 18.0413 120.142 16.9352 120.676 15.9824C121.22 15.0181 122.003 14.2695 123.024 13.7363C124.045 13.1918 125.247 12.9196 126.631 12.9196C130 12.9196 132.048 14.3092 132.774 17.0884L130.068 17.4117C129.785 16.6063 129.371 16.0277 128.826 15.6761C128.293 15.3244 127.561 15.1486 126.631 15.1486C125.417 15.1486 124.459 15.5173 123.755 16.2546C123.052 16.992 122.7 18.0072 122.7 19.3004C122.7 20.605 123.052 21.6259 123.755 22.3632C124.459 23.0892 125.434 23.4522 126.682 23.4522C127.692 23.4522 128.486 23.2651 129.064 22.8907C129.643 22.5164 130.029 21.9435 130.221 21.1721H132.978ZM149.538 19.3004C149.538 20.5823 149.254 21.7053 148.687 22.6695C148.131 23.6224 147.32 24.3654 146.254 24.8986C145.199 25.4204 143.94 25.6813 142.476 25.6813C141.07 25.6813 139.839 25.4317 138.784 24.9326C137.74 24.4221 136.923 23.6905 136.334 22.7376C135.755 21.7734 135.466 20.6276 135.466 19.3004C135.466 18.0186 135.744 16.9012 136.3 15.9483C136.867 14.9841 137.678 14.2411 138.733 13.7193C139.799 13.1861 141.064 12.9196 142.527 12.9196C143.934 12.9196 145.159 13.1748 146.203 13.6853C147.258 14.1844 148.074 14.9161 148.653 15.8803C149.243 16.8332 149.538 17.9732 149.538 19.3004ZM146.713 19.3004C146.713 17.9845 146.344 16.9636 145.607 16.2376C144.87 15.5116 143.832 15.1486 142.493 15.1486C141.166 15.1486 140.134 15.5173 139.396 16.2546C138.659 16.9806 138.29 17.9959 138.29 19.3004C138.29 20.6163 138.659 21.6372 139.396 22.3632C140.134 23.0892 141.172 23.4522 142.51 23.4522C143.837 23.4522 144.87 23.0892 145.607 22.3632C146.344 21.6259 146.713 20.605 146.713 19.3004ZM152.631 25.375V13.2258H158.076C160.402 13.2258 162.171 13.7476 163.385 14.7913C164.61 15.8236 165.223 17.3266 165.223 19.3004C165.223 21.2402 164.576 22.7376 163.283 23.7925C162.001 24.8475 160.175 25.375 157.804 25.375H152.631ZM157.923 23.1119C159.409 23.1119 160.526 22.7886 161.275 22.142C162.035 21.4954 162.415 20.5426 162.415 19.2834C162.415 16.7537 160.997 15.4889 158.161 15.4889H155.337V23.1119H157.923ZM168.321 25.375V13.2258H178.496V15.4549H171.043V18.0072H178.139V20.2363H171.043V23.146H178.871L178.53 25.375H168.321Z" fill="currentColor"/>
<defs>
<linearGradient id="paint0_linear_58970_5129" x1="32.6629" y1="5.63064" x2="17.5067" y2="25.4714" gradientUnits="userSpaceOnUse">
<stop stop-color="currentColor"/>
<stop offset="1" stop-color="currentColor"/>
</linearGradient>
</defs>
</svg>
