<svg preserveAspectRatio="none" width="100%" height="100%" overflow="visible" style="display: block;" viewBox="0 0 37 37" fill="none" xmlns="http://www.w3.org/2000/svg">
<g id="Frame 2147236735">
<g id="Group 9">
<g id="Union">
</g>
<path id="Union_2" d="M2.458 8.66006L3.68983 8.66006L3.68983 8.66006L2.458 8.66006ZM6.59765 7.05459L5.69981 7.89796L5.69981 7.89797L6.59765 7.05459ZM18.375 18.4198L19.0941 19.4199L20.3768 18.4976L19.1696 17.4785L18.375 18.4198ZM6.5996 29.6747L5.69131 28.8426L5.6913 28.8426L6.5996 29.6747ZM2.458 28.0976L1.22617 28.0976L1.22617 28.0976L2.458 28.0976ZM2.458 8.66006L3.68983 8.66006C3.68983 7.68828 4.98185 7.13364 5.69981 7.89796L6.59765 7.05459L7.49549 6.21121C5.30194 3.87602 1.22617 5.37933 1.22617 8.66006L2.458 8.66006ZM6.59765 7.05459L5.69981 7.89797C8.77282 11.1694 13.1839 15.6499 17.5804 19.3611L18.375 18.4198L19.1696 17.4785C14.8798 13.8574 10.5438 9.45633 7.49549 6.21121L6.59765 7.05459ZM18.375 18.4198L17.6559 17.4197C13.9871 20.0578 9.08514 25.138 5.69131 28.8426L6.5996 29.6747L7.5079 30.5068C10.9204 26.7818 15.6618 21.888 19.0941 19.4199L18.375 18.4198ZM6.5996 29.6747L5.6913 28.8426C4.98165 29.6172 3.68987 29.0718 3.68983 28.0975L2.458 28.0976L1.22617 28.0976C1.22632 31.3952 5.33187 32.8821 7.5079 30.5068L6.5996 29.6747ZM2.458 28.0976H3.68983V8.66006H2.458H1.22617V28.0976H2.458Z" fill="var(--stroke-0, white)"/>
</g>
<g id="Group 10">
<g id="Union_3">
</g>
<path id="Union_4" d="M30.371 6.37826L29.5 5.50726L29.5001 5.5071L30.371 6.37826ZM18.375 18.3753L17.5039 19.2464L16.6329 18.3754L17.5039 17.5043L18.375 18.3753ZM30.371 30.3714L29.5001 31.2426L29.5 31.2425L30.371 30.3714ZM34.2919 8.00326H33.0601C33.0601 7.05385 31.9125 6.5791 31.242 7.24942L30.371 6.37826L29.5001 5.5071C31.7236 3.28429 35.5238 4.86032 35.5238 8.00326H34.2919ZM30.371 6.37826L31.2421 7.24926L19.246 19.2463L18.375 18.3753L17.5039 17.5043L29.5 5.50726L30.371 6.37826ZM18.375 18.3753L19.246 17.5043L31.2421 29.5004L30.371 30.3714L29.5 31.2425L17.5039 19.2464L18.375 18.3753ZM30.371 30.3714L31.242 29.5003C31.9125 30.1706 33.0601 29.6958 33.0601 28.7464H34.2919H35.5238C35.5238 31.8894 31.7236 33.4654 29.5001 31.2426L30.371 30.3714ZM34.2919 28.7464H33.0601V8.00326H34.2919H35.5238V28.7464H34.2919Z" fill="url(#paint0_linear_58972_4758)"/>
</g>
<circle id="Ellipse 7" cx="18.4348" cy="18.3751" r="4.94224" fill="var(--fill-0, black)" stroke="var(--stroke-0, #F8F8F8)" stroke-width="2.46365"/>
</g>
<defs>
<linearGradient id="paint0_linear_58972_4758" x1="32.6629" y1="5.63073" x2="17.5067" y2="25.4715" gradientUnits="userSpaceOnUse">
<stop stop-color="white"/>
<stop offset="1" stop-color="white"/>
</linearGradient>
</defs>
</svg>
