<svg width="128" height="27" viewBox="0 0 128 27" fill="none" xmlns="http://www.w3.org/2000/svg">
<path d="M23.7212 16.1431C23.8727 15.5773 23.9737 15.0103 24.0314 14.4468C20.8313 15.5591 17.4641 15.7604 14.267 15.1391L13.4314 18.2577C16.6704 18.8933 20.0961 18.6335 23.3113 17.3698C23.4697 16.9746 23.608 16.5655 23.7212 16.1431ZM2.92339 15.761C3.68945 19.0939 6.03191 21.9591 9.33809 23.2971L10.1881 20.1249C7.52147 19.2061 5.03738 17.7346 2.92339 15.761ZM21.0954 20.7947C18.3116 21.389 15.4682 21.3828 12.7439 20.8232L11.8973 23.9828C15.3671 24.4686 18.7676 23.2123 21.0954 20.7947ZM7.42923 4.45035C6.54689 5.03743 5.75035 5.75631 5.07047 6.58721C7.00461 9.07567 9.56552 10.8735 12.396 11.8847L13.1979 8.89227C10.9414 8.02856 8.91707 6.52184 7.42923 4.45035ZM22.9741 8.61446C20.6496 9.66469 18.1433 9.95836 15.7571 9.57802L14.9553 12.5704C17.9119 13.11 21.028 12.8329 23.9471 11.6452C23.7736 10.5855 23.4448 9.56414 22.9741 8.61446ZM14.8426 2.75394C13.1186 2.51257 11.4113 2.70246 9.84353 3.25021C10.9319 4.63476 12.3345 5.66969 13.8887 6.31413L14.8426 2.75394ZM16.4479 6.99987C18.1161 7.21893 19.8481 7.02382 21.483 6.36901C20.3992 5.1108 19.0156 4.09259 17.4018 3.43968L16.4479 6.99987ZM3.0182 10.5958C2.9212 10.9578 2.84499 11.3207 2.78684 11.6821C4.91343 14.4469 7.74577 16.4396 10.8766 17.5551L11.7078 14.4534C8.62806 13.3927 5.8119 11.535 3.59659 8.97131C3.36485 9.48811 3.16981 10.03 3.0182 10.5958ZM26.2814 16.8291C26.0844 17.5645 25.8284 18.2708 25.5213 18.9424C22.8572 24.7685 16.3049 27.9947 9.90999 26.2812C3.43957 24.5473 -0.642197 18.3531 0.0831566 11.893C0.157306 11.2327 0.282168 10.5699 0.458983 9.91002C0.859375 8.41595 1.49915 7.04645 2.3265 5.83393C5.43677 1.276 11.1932 -1.05132 16.8291 0.45873C22.4651 1.96889 26.2876 6.8628 26.7022 12.3654C26.8124 13.8291 26.6817 15.335 26.2814 16.8291Z" fill="#032F35"/>
<path d="M43.2326 14.9125H39.2018C39.1135 14.206 38.8674 13.7582 38.4637 13.5689C38.0726 13.3797 37.4481 13.2851 36.5903 13.2851C35.7576 13.2851 35.152 13.3797 34.7735 13.5689C34.4077 13.7456 34.1175 14.1682 33.903 14.8368C33.6886 15.4929 33.5813 16.2057 33.5813 16.9753C33.5813 17.7448 33.6759 18.4324 33.8652 19.038C34.0544 19.6435 34.3383 20.0599 34.7168 20.287C35.1079 20.5141 35.7324 20.6276 36.5903 20.6276C37.3851 20.6276 37.978 20.5393 38.3691 20.3627C38.7728 20.1734 39.0378 19.7571 39.1639 19.1137H43.2326C43.2326 20.2743 43.0118 21.1512 42.5702 21.7441C42.1287 22.3371 41.4474 22.8228 40.5265 23.2013C39.6055 23.5671 38.325 23.7501 36.6849 23.7501C34.9691 23.7501 33.575 23.523 32.5027 23.0688C31.4429 22.602 30.7175 21.8198 30.3264 20.7222C29.9353 19.6246 29.7397 18.3756 29.7397 16.9753C29.7397 15.5749 29.9542 14.3133 30.3832 13.1904C30.8247 12.055 31.5565 11.2665 32.5784 10.8249C33.6003 10.3834 34.9691 10.1626 36.6849 10.1626C38.325 10.1626 39.5992 10.3581 40.5075 10.7492C41.4159 11.1277 42.0971 11.645 42.5513 12.301C43.0055 12.957 43.2326 13.8276 43.2326 14.9125Z" fill="#032F35"/>
<path d="M48.7957 16.54H45.1244C45.2253 15.7578 45.4966 15.0892 45.9381 14.5341C46.3797 13.9663 46.9537 13.5311 47.6602 13.2283C48.3793 12.9129 49.4454 12.7552 50.8584 12.7552C52.5616 12.7552 53.7601 12.9381 54.454 13.304C55.1478 13.6699 55.6714 14.1682 56.0247 14.799C56.3905 15.4172 56.5734 16.1237 56.5734 16.9185V21.6495L57.0087 23.3905H53.3374L52.9211 21.7252C52.7066 22.1415 52.366 22.5137 51.8992 22.8417C51.3693 23.2076 50.8458 23.4473 50.3285 23.5608C49.8239 23.687 49.2057 23.7501 48.474 23.7501C47.8684 23.7501 47.2439 23.6365 46.6005 23.4094C45.9571 23.195 45.484 22.766 45.1812 22.1226C44.891 21.4666 44.7459 20.8105 44.7459 20.1545C44.7459 19.1326 44.9604 18.4198 45.3893 18.0161C45.8183 17.6124 46.4428 17.3285 47.2628 17.1645C47.9945 17.0131 48.8777 16.9374 49.9122 16.9374C50.8205 16.95 51.8172 16.9942 52.9022 17.0699V16.8617C52.9022 16.458 52.7823 16.1615 52.5426 15.9723C52.3155 15.783 51.7794 15.6884 50.9341 15.6884C50.0636 15.6884 49.5022 15.7704 49.2498 15.9344C48.9975 16.0984 48.8461 16.3003 48.7957 16.54ZM52.9022 19.0001C52.3471 18.9623 51.8614 18.9434 51.445 18.9434C51.1927 18.9434 50.9656 18.9497 50.7638 18.9623C50.1582 19.0127 49.6788 19.0758 49.3255 19.1515C48.9849 19.2272 48.7452 19.3345 48.6064 19.4732C48.4677 19.612 48.3983 19.8328 48.3983 20.1356C48.3983 20.6402 48.4866 20.9745 48.6632 21.1385C48.8398 21.3026 49.0858 21.3846 49.4012 21.3846C49.9437 21.3846 50.3979 21.3467 50.7638 21.271C51.1422 21.1827 51.5901 20.9745 52.1074 20.6465C52.6372 20.3059 52.9022 19.8896 52.9022 19.3975V19.0001Z" fill="#032F35"/>
<path d="M62.6204 17.5997V23.3905H58.9492V14.8558L58.5139 13.1147H62.1852L62.5826 14.6854C62.8854 14.143 63.2449 13.6951 63.6612 13.3418C64.1154 12.9507 64.8598 12.7552 65.8943 12.7552C66.6765 12.7552 67.4019 12.8435 68.0705 13.0201C68.7392 13.1841 69.1934 13.5942 69.4331 14.2502C69.4835 14.4268 69.534 14.6097 69.5845 14.799C69.8999 14.206 70.2784 13.7203 70.7199 13.3418C71.1741 12.9507 71.9184 12.7552 72.953 12.7552C73.7351 12.7552 74.4606 12.8435 75.1292 13.0201C75.7979 13.1841 76.2457 13.5942 76.4728 14.2502C76.7125 14.9062 76.8324 15.6758 76.8324 16.5589V23.3905H73.1611V17.297C73.1611 16.9059 73.1359 16.5715 73.0854 16.294C73.0476 16.0038 72.8836 15.8335 72.5934 15.783C72.3032 15.72 72.0131 15.6884 71.7229 15.6884C71.2435 15.6884 70.8902 15.72 70.6631 15.783C70.4487 15.8335 70.2657 15.9534 70.1143 16.1426C69.963 16.3318 69.8557 16.5463 69.7926 16.786C69.78 16.7986 69.7737 16.8112 69.7737 16.8239V23.3905H66.1024V17.297C66.1024 16.9059 66.0772 16.5715 66.0267 16.294C65.9889 16.0038 65.8249 15.8335 65.5347 15.783C65.2446 15.72 64.9544 15.6884 64.6642 15.6884C64.1848 15.6884 63.8316 15.72 63.6045 15.783C63.39 15.8335 63.2071 15.9534 63.0557 16.1426C62.9043 16.3318 62.7907 16.5463 62.715 16.786C62.652 17.0257 62.6204 17.297 62.6204 17.5997Z" fill="#032F35"/>
<path d="M85.9888 23.7501C85.2066 23.7501 84.3992 23.5356 83.5665 23.1066C83.1124 22.8922 82.7402 22.6146 82.45 22.274V26.7401H78.7787V14.8558L78.3435 13.1147H82.0148L82.4122 14.6665C82.5383 14.4899 82.6771 14.3196 82.8285 14.1556C83.7368 13.222 84.7587 12.7552 85.8942 12.7552C85.932 12.7552 85.9636 12.7552 85.9888 12.7552C88.0074 12.793 89.3888 13.2851 90.1332 14.2313C90.8775 15.1649 91.2497 16.5085 91.2497 18.2621C91.2497 19.3849 91.0731 20.432 90.7198 21.4035C90.3666 22.3623 89.8367 22.9931 89.1302 23.2959C88.4237 23.5987 87.3766 23.7501 85.9888 23.7501ZM85.3075 20.8168C86.2285 20.8168 86.8972 20.6024 87.3135 20.1734C87.7298 19.7319 87.938 19.0947 87.938 18.2621C87.938 17.4168 87.7298 16.7797 87.3135 16.3508C86.8972 15.9092 86.2285 15.6884 85.3075 15.6884C84.5253 15.6884 83.8504 15.9092 83.2827 16.3508C82.7276 16.7797 82.45 17.4168 82.45 18.2621C82.45 19.0947 82.7276 19.7319 83.2827 20.1734C83.8504 20.6024 84.5253 20.8168 85.3075 20.8168Z" fill="#032F35"/>
<path d="M99.2114 23.7501C97.6344 23.7501 96.3602 23.5608 95.3887 23.1823C94.4173 22.8039 93.736 22.1731 93.3449 21.2899C92.9538 20.3942 92.7583 19.3849 92.7583 18.2621C92.7583 17.0888 92.9349 16.0732 93.2882 15.2153C93.654 14.3448 94.3416 13.7203 95.3509 13.3418C96.3728 12.9507 97.6596 12.7552 99.2114 12.7552C100.915 12.7552 102.214 12.9381 103.11 13.304C104.005 13.6699 104.662 14.307 105.078 15.2153C105.494 16.1111 105.702 17.1266 105.702 18.2621C105.702 19.4228 105.469 20.4573 105.002 21.3656C104.548 22.2614 103.892 22.8859 103.034 23.2391C102.176 23.5797 100.902 23.7501 99.2114 23.7501ZM99.2114 20.8168C100.334 20.8168 101.066 20.6024 101.407 20.1734C101.76 19.7319 101.936 19.0947 101.936 18.2621C101.936 17.4168 101.76 16.7797 101.407 16.3508C101.066 15.9092 100.334 15.6884 99.2114 15.6884C98.2147 15.6884 97.5145 15.9092 97.1108 16.3508C96.7197 16.7797 96.5242 17.4168 96.5242 18.2621C96.5242 19.0947 96.7197 19.7319 97.1108 20.1734C97.5145 20.6024 98.2147 20.8168 99.2114 20.8168Z" fill="#032F35"/>
<path d="M114.42 23.7501C112.692 23.7501 111.31 23.4977 110.276 22.9931C109.254 22.4758 108.484 21.6936 107.967 20.6465C107.462 19.5994 107.21 18.3756 107.21 16.9753C107.21 15.5749 107.45 14.3574 107.929 13.3229C108.409 12.2758 109.178 11.4873 110.238 10.9574C111.298 10.4275 112.692 10.1626 114.42 10.1626C116.161 10.1626 117.549 10.4338 118.583 10.9763C119.631 11.5188 120.4 12.3073 120.892 13.3418C121.397 14.3637 121.649 15.5749 121.649 16.9753C121.649 18.3756 121.397 19.5931 120.892 20.6276C120.589 21.2458 120.192 21.7757 119.7 22.2172L122.179 25.4532H117.997L116.559 23.5797C115.915 23.6933 115.202 23.7501 114.42 23.7501ZM114.42 20.6276C115.366 20.6276 116.06 20.4951 116.502 20.2302C116.943 19.9653 117.252 19.5489 117.429 18.9812C117.606 18.4009 117.694 17.7322 117.694 16.9753C117.694 16.2057 117.606 15.5433 117.429 14.9882C117.265 14.4331 116.956 14.0105 116.502 13.7203C116.06 13.4301 115.366 13.2851 114.42 13.2851C113.487 13.2851 112.786 13.4238 112.32 13.7014C111.853 13.9789 111.544 14.4016 111.392 14.9693C111.241 15.537 111.165 16.2057 111.165 16.9753C111.165 17.7322 111.253 18.4072 111.43 19.0001C111.619 19.5805 111.928 19.9968 112.357 20.2491C112.799 20.5014 113.487 20.6276 114.42 20.6276Z" fill="#032F35"/>
<path d="M123.695 23.3905V10.5222H127.555V23.3905H123.695Z" fill="#032F35"/>
</svg>
